# xmcd CD database file
#
# Track frame offsets:
#	200
#	21357
#	36627
#	55787
#	71902
#	91002
#	105202
#	120442
#	146372
#	159875
#
# Disc length: 2431 seconds
#
# Revision: 0
# Processed by: cddbd v1.4PL0 Copyright (c) Steve Scherf et al.
# Submitted via: CDex 1.51
#
DISCID=79097d0a
DTITLE=The League of Decency - A Swingin' Christmas
DYEAR=1995
DGENRE=Jazz
TTITLE0=God Rest Ye Merry Gentlemen
TTITLE1=Have Yourself A Merry Little Christmas
TTITLE2=A Holly Jolly Christmas
TTITLE3=Greensleeves
TTITLE4=This Christmas
TTITLE5=Let It Snow
TTITLE6=Christmas Time isHere
TTITLE7=The Christmas Song
TTITLE8=I'll Be Home For Christmas
TTITLE9=Jingle Bell Blues
EXTD=YEAR: 1995
EXTT0=
EXTT1=
EXTT2=
EXTT3=
EXTT4=
EXTT5=
EXTT6=
EXTT7=
EXTT8=
EXTT9=
PLAYORDER=
